<svg width="320" height="240" version="1.1" viewBox="0 0 84.6667 63.5" xmlns="http://www.w3.org/2000/svg"><g transform="translate(0 -233.5)"><g><path d="m15.0127 233.5-2.17735 4.14728a10.4114 10.4114 0 0 1 2.17735-0.243 10.4114 10.4114 0 0 1 2.17227 0.23385zm-10.1227 4.19305 1.39192 4.46857a10.4114 10.4114 0 0 1 3.06751-3.07921zm20.2454 0-4.46858 1.39191a10.4114 10.4114 0 0 1 3.0792 3.0675zm0.04575 7.94532a10.4114 10.4114 0 0 1 0.243001 2.17735 10.4114 10.4114 0 0 1-0.233851 2.17227l4.13814-2.17227zm-20.346 5e-3 -4.13814 2.17227 4.14729 2.17736a10.4114 10.4114 0 0 1-0.243001-2.17736 10.4114 10.4114 0 0 1 0.233851-2.17227zm18.9083 7.82637a10.4114 10.4114 0 0 1-3.06751 3.07921l4.45943 1.38938zm-17.4641 9e-3 -1.38938 4.45943 4.46858-1.39191a10.4114 10.4114 0 0 1-3.0792-3.06752zm10.9107 4.50518a10.4114 10.4114 0 0 1-2.17735 0.24301 10.4114 10.4114 0 0 1-2.17227-0.23384l2.17227 4.13813z" opacity=".5" stroke="#fff" stroke-linejoin="round" stroke-width=".260286" style="paint-order:markers stroke fill"/><circle cx="15.0127" cy="247.816" r="7.80858" opacity=".5" stroke="#fff" stroke-linejoin="round" stroke-width=".260286" style="paint-order:markers stroke fill"/><path d="m13.2292 278.479 18.5208-18.5208h34.3958l-18.5208 18.5208" fill="#4b4b4b"/></g><g transform="matrix(.924179 0 0 .924179 9.05621 22.4686)" stroke="#646464" stroke-width="1.05833"><path d="m25.4561 258.736-16.1155 16.1155h32.2311l16.1155-16.1155z" fill-opacity=".490196"/><path d="m17.3984 266.793h32.2311" fill-opacity=".490196"/><path d="m33.5139 258.736-16.1155 16.1155" fill="#7d7d7d"/><path d="m25.4561 274.851 16.1155-16.1155" fill-opacity=".490196"/><path d="m49.6294 258.736-16.1155 16.1155" fill-opacity=".490196"/></g><rect x="13.2292" y="278.479" width="34.3958" height="18.5208" fill="#646464" style="paint-order:markers stroke fill"/><path d="m47.625 297v-18.5208l18.5208-18.5208 18.5208 18.5208v18.5208z" fill="#7d7d7d"/></g></svg>
